<svg width="104" height="21" viewBox="0 0 104 21" fill="none" xmlns="http://www.w3.org/2000/svg">
<path d="M0.601562 16V14.1201L2.2666 13.7979V2.57227L0.601562 2.25V0.359375H7.06836V2.25L5.40332 2.57227V13.7979L7.06836 14.1201V16H0.601562ZM8.27148 16V14.1201L9.93652 13.7979V2.57227L8.27148 2.25V0.359375H13.1162L19.9268 11.209L19.9912 11.1982V2.57227L17.9932 2.25V0.359375H24.4707V2.25L22.7949 2.57227V16H19.7656L12.8047 5.25781L12.7402 5.26855V13.7979L14.749 14.1201V16H8.27148Z" fill="#CFC160"/>
<path d="M30.4884 16.22C29.4617 16.22 28.5964 16.0587 27.8924 15.736C27.2031 15.3987 26.6824 15.0173 26.3304 14.592C25.9931 14.1667 25.8244 13.8147 25.8244 13.536C25.8244 13.3893 25.8757 13.2793 25.9784 13.206C26.0957 13.118 26.2131 13.074 26.3304 13.074H27.3204C27.4671 13.074 27.5991 13.1473 27.7164 13.294C28.0684 13.7047 28.4497 14.0273 28.8604 14.262C29.2711 14.4967 29.8211 14.614 30.5104 14.614C31.2731 14.614 31.8891 14.4673 32.3584 14.174C32.8424 13.866 33.0844 13.448 33.0844 12.92C33.0844 12.568 32.9817 12.282 32.7764 12.062C32.5857 11.8273 32.2484 11.6293 31.7644 11.468C31.2951 11.292 30.5911 11.1013 29.6524 10.896C28.3764 10.6173 27.4671 10.214 26.9244 9.686C26.3964 9.158 26.1324 8.476 26.1324 7.64C26.1324 7.08267 26.2937 6.55467 26.6164 6.056C26.9537 5.54267 27.4377 5.132 28.0684 4.824C28.7137 4.50133 29.4837 4.34 30.3784 4.34C31.3171 4.34 32.1164 4.494 32.7764 4.802C33.4364 5.11 33.9277 5.47667 34.2504 5.902C34.5877 6.31267 34.7564 6.65733 34.7564 6.936C34.7564 7.068 34.7051 7.178 34.6024 7.266C34.5144 7.354 34.4044 7.398 34.2724 7.398H33.3484C33.1724 7.398 33.0257 7.32467 32.9084 7.178C32.6737 6.89933 32.4684 6.68667 32.2924 6.54C32.1311 6.37867 31.8891 6.23933 31.5664 6.122C31.2584 6.00467 30.8624 5.946 30.3784 5.946C29.6744 5.946 29.1317 6.1 28.7504 6.408C28.3691 6.70133 28.1784 7.09 28.1784 7.574C28.1784 7.882 28.2591 8.146 28.4204 8.366C28.5817 8.57133 28.8897 8.762 29.3444 8.938C29.8137 9.114 30.4884 9.29733 31.3684 9.488C32.7617 9.78133 33.7444 10.2067 34.3164 10.764C34.9031 11.3067 35.1964 12.0033 35.1964 12.854C35.1964 13.4847 35.0131 14.0567 34.6464 14.57C34.2797 15.0833 33.7371 15.4867 33.0184 15.78C32.3144 16.0733 31.4711 16.22 30.4884 16.22ZM38.2712 20.18C38.1246 20.18 37.9999 20.1287 37.8972 20.026C37.8092 19.938 37.7652 19.8207 37.7652 19.674V5.066C37.7652 4.91933 37.8092 4.802 37.8972 4.714C37.9999 4.61133 38.1246 4.56 38.2712 4.56H39.2832C39.4299 4.56 39.5472 4.61133 39.6352 4.714C39.7379 4.802 39.7892 4.91933 39.7892 5.066V6.034C40.6106 4.90467 41.8132 4.34 43.3972 4.34C44.9372 4.34 46.0886 4.824 46.8512 5.792C47.6286 6.76 48.0466 8.00667 48.1052 9.532C48.1199 9.69333 48.1272 9.94267 48.1272 10.28C48.1272 10.6173 48.1199 10.8667 48.1052 11.028C48.0466 12.5387 47.6286 13.7853 46.8512 14.768C46.0739 15.736 44.9226 16.22 43.3972 16.22C41.8719 16.22 40.6839 15.67 39.8332 14.57V19.674C39.8332 19.8207 39.7892 19.938 39.7012 20.026C39.6132 20.1287 39.4959 20.18 39.3492 20.18H38.2712ZM42.9352 14.438C43.9766 14.438 44.7319 14.1153 45.2012 13.47C45.6852 12.8247 45.9492 11.974 45.9932 10.918C46.0079 10.7713 46.0152 10.5587 46.0152 10.28C46.0152 7.508 44.9886 6.122 42.9352 6.122C41.9232 6.122 41.1606 6.45933 40.6472 7.134C40.1486 7.794 39.8772 8.586 39.8332 9.51L39.8112 10.346L39.8332 11.204C39.8626 12.0693 40.1412 12.8247 40.6692 13.47C41.1972 14.1153 41.9526 14.438 42.9352 14.438ZM55.4247 16.22C53.914 16.22 52.704 15.758 51.7947 14.834C50.9 13.8953 50.4087 12.6193 50.3207 11.006L50.2987 10.258L50.3207 9.532C50.4234 7.948 50.922 6.68667 51.8167 5.748C52.726 4.80933 53.9214 4.34 55.4027 4.34C57.0307 4.34 58.292 4.86067 59.1867 5.902C60.0814 6.92867 60.5287 8.322 60.5287 10.082V10.456C60.5287 10.6027 60.4774 10.7273 60.3747 10.83C60.2867 10.918 60.1694 10.962 60.0227 10.962H52.4107V11.16C52.4547 12.1133 52.7407 12.9273 53.2687 13.602C53.8114 14.262 54.5227 14.592 55.4027 14.592C56.0774 14.592 56.6274 14.46 57.0527 14.196C57.4927 13.9173 57.8154 13.6313 58.0207 13.338C58.1527 13.162 58.248 13.0593 58.3067 13.03C58.38 12.986 58.5047 12.964 58.6807 12.964H59.7587C59.8907 12.964 60.0007 13.0007 60.0887 13.074C60.1767 13.1473 60.2207 13.25 60.2207 13.382C60.2207 13.7047 60.0154 14.0933 59.6047 14.548C59.2087 15.0027 58.644 15.3987 57.9107 15.736C57.192 16.0587 56.3634 16.22 55.4247 16.22ZM58.4387 9.444V9.378C58.4387 8.366 58.16 7.54467 57.6027 6.914C57.06 6.26867 56.3267 5.946 55.4027 5.946C54.4787 5.946 53.7454 6.26867 53.2027 6.914C52.6747 7.54467 52.4107 8.366 52.4107 9.378V9.444H58.4387ZM67.7793 16.22C66.2099 16.22 64.9779 15.78 64.0833 14.9C63.2033 14.0053 62.7339 12.7587 62.6753 11.16L62.6533 10.28L62.6753 9.4C62.7339 7.80133 63.2033 6.562 64.0833 5.682C64.9779 4.78733 66.2099 4.34 67.7793 4.34C68.8353 4.34 69.7299 4.53067 70.4633 4.912C71.1966 5.29333 71.7393 5.76267 72.0913 6.32C72.4579 6.87733 72.6559 7.43467 72.6853 7.992C72.6999 8.13867 72.6559 8.256 72.5533 8.344C72.4506 8.432 72.3259 8.476 72.1793 8.476H71.1233C70.9766 8.476 70.8666 8.44667 70.7933 8.388C70.7199 8.32933 70.6466 8.212 70.5733 8.036C70.3239 7.332 69.9719 6.83333 69.5173 6.54C69.0626 6.232 68.4906 6.078 67.8013 6.078C66.8919 6.078 66.1659 6.364 65.6233 6.936C65.0953 7.49333 64.8093 8.35133 64.7652 9.51L64.7433 10.302L64.7652 11.05C64.8093 12.2233 65.0953 13.0887 65.6233 13.646C66.1513 14.2033 66.8773 14.482 67.8013 14.482C68.4906 14.482 69.0626 14.3353 69.5173 14.042C69.9719 13.734 70.3239 13.228 70.5733 12.524C70.6466 12.348 70.7199 12.2307 70.7933 12.172C70.8666 12.0987 70.9766 12.062 71.1233 12.062H72.1793C72.3259 12.062 72.4506 12.1133 72.5533 12.216C72.6559 12.304 72.6999 12.4213 72.6853 12.568C72.6559 13.1107 72.4579 13.668 72.0913 14.24C71.7393 14.7973 71.1966 15.2667 70.4633 15.648C69.7446 16.0293 68.8499 16.22 67.7793 16.22ZM79.7639 16C77.4466 16 76.2879 14.7093 76.2879 12.128V6.32H74.5719C74.4253 6.32 74.3006 6.276 74.1979 6.188C74.1099 6.08533 74.0659 5.96067 74.0659 5.814V5.066C74.0659 4.91933 74.1099 4.802 74.1979 4.714C74.3006 4.61133 74.4253 4.56 74.5719 4.56H76.2879V0.885999C76.2879 0.739333 76.3319 0.622 76.4199 0.534C76.5226 0.431333 76.6473 0.379999 76.7939 0.379999H77.8279C77.9746 0.379999 78.0919 0.431333 78.1799 0.534C78.2826 0.622 78.3339 0.739333 78.3339 0.885999V4.56H81.0619C81.2086 4.56 81.3259 4.61133 81.4139 4.714C81.5166 4.802 81.5679 4.91933 81.5679 5.066V5.814C81.5679 5.96067 81.5166 6.08533 81.4139 6.188C81.3259 6.276 81.2086 6.32 81.0619 6.32H78.3339V11.974C78.3339 12.7073 78.4586 13.2647 78.7079 13.646C78.9573 14.0127 79.3679 14.196 79.9399 14.196H81.2819C81.4286 14.196 81.5459 14.2473 81.6339 14.35C81.7366 14.438 81.7879 14.5553 81.7879 14.702V15.494C81.7879 15.6407 81.7366 15.7653 81.6339 15.868C81.5459 15.956 81.4286 16 81.2819 16H79.7639ZM88.5777 16.22C86.9643 16.22 85.7103 15.7653 84.8157 14.856C83.9357 13.9467 83.4663 12.7367 83.4077 11.226L83.3857 10.28L83.4077 9.334C83.4663 7.838 83.943 6.63533 84.8377 5.726C85.7323 4.802 86.979 4.34 88.5777 4.34C90.1763 4.34 91.423 4.802 92.3177 5.726C93.2123 6.63533 93.689 7.838 93.7477 9.334C93.7623 9.49533 93.7697 9.81067 93.7697 10.28C93.7697 10.7493 93.7623 11.0647 93.7477 11.226C93.689 12.7367 93.2123 13.9467 92.3177 14.856C91.4377 15.7653 90.191 16.22 88.5777 16.22ZM88.5777 14.526C89.5017 14.526 90.2277 14.2327 90.7557 13.646C91.2983 13.0593 91.5917 12.216 91.6357 11.116C91.6503 10.9693 91.6577 10.6907 91.6577 10.28C91.6577 9.86933 91.6503 9.59067 91.6357 9.444C91.5917 8.344 91.2983 7.50067 90.7557 6.914C90.2277 6.32733 89.5017 6.034 88.5777 6.034C87.6537 6.034 86.9203 6.32733 86.3777 6.914C85.835 7.50067 85.549 8.344 85.5197 9.444L85.4977 10.28L85.5197 11.116C85.549 12.216 85.835 13.0593 86.3777 13.646C86.9203 14.2327 87.6537 14.526 88.5777 14.526ZM97.0305 16C96.8838 16 96.7592 15.956 96.6565 15.868C96.5685 15.7653 96.5245 15.6407 96.5245 15.494V5.088C96.5245 4.94133 96.5685 4.81667 96.6565 4.714C96.7592 4.61133 96.8838 4.56 97.0305 4.56H98.0425C98.1892 4.56 98.3138 4.61133 98.4165 4.714C98.5192 4.81667 98.5705 4.94133 98.5705 5.088V6.056C99.1718 5.05867 100.198 4.56 101.65 4.56H102.508C102.655 4.56 102.772 4.61133 102.86 4.714C102.963 4.802 103.014 4.91933 103.014 5.066V5.968C103.014 6.11467 102.963 6.232 102.86 6.32C102.772 6.408 102.655 6.452 102.508 6.452H101.188C100.396 6.452 99.7732 6.68667 99.3185 7.156C98.8638 7.61067 98.6365 8.234 98.6365 9.026V15.494C98.6365 15.6407 98.5852 15.7653 98.4825 15.868C98.3798 15.956 98.2552 16 98.1085 16H97.0305Z" fill="#2A2A2A"/>
</svg>
